<svg version="1.1" xmlns="http://www.w3.org/2000/svg" width="512" height="512">
<path d="M0 0 C23.1 0 46.2 0 70 0 C75.28 28.71 80.56 57.42 86 87 C88.01845478 84.98154522 87.86522138 81.19145813 88.29101562 78.42260742 C88.41635178 77.62909378 88.54168793 76.83558014 88.67082214 76.01802063 C89.08641186 73.38108235 89.49626224 70.7432833 89.90625 68.10546875 C90.19348 66.277956 90.48112361 64.45050821 90.76916504 62.62312317 C91.5284927 57.80009278 92.28321084 52.97635314 93.03668213 48.15240479 C94.24176763 40.44071487 95.4528334 32.7299652 96.66569519 25.01949501 C97.08900654 22.32318253 97.50979357 19.62648477 97.93029785 16.92973328 C98.18978389 15.2750023 98.44934219 13.62028265 98.70898438 11.96557617 C98.8835743 10.83936356 98.8835743 10.83936356 99.06169128 9.69039917 C99.57934333 6.4039084 100.19197505 3.23209978 101 0 C124.76 0 148.52 0 173 0 C176.44984023 27.59872183 176.44984023 27.59872183 177.44213867 36.84716797 C177.5596196 37.92700958 177.67710052 39.0068512 177.79814148 40.11941528 C178.17360454 43.57677347 178.54606277 47.034445 178.91796875 50.4921875 C179.18269833 52.94499992 179.44745412 55.39780952 179.7122345 57.85061646 C180.26079017 62.93784388 180.80755208 68.02526056 181.35327148 73.11279297 C182.05093925 79.61349457 182.75549423 86.1134307 183.46161938 92.61321831 C184.00824704 97.65554744 184.55009667 102.69838177 185.09063148 107.74136734 C185.34844022 110.13920915 185.60798273 112.53686525 185.86934471 114.93432236 C186.23328151 118.27714806 186.59046576 121.62063184 186.94604492 124.96435547 C187.05354065 125.93798035 187.16103638 126.91160522 187.27178955 127.91473389 C187.36842392 128.83618195 187.46505829 129.75763 187.56462097 130.70700073 C187.64921664 131.49253767 187.73381231 132.27807461 187.82097149 133.0874157 C188.08506545 137.38391523 188 141.69539156 188 146 C170.84 146 153.68 146 136 146 C135.35323574 140.82588593 134.85141362 136.07669085 134.71875 130.91992188 C134.70070313 130.26170441 134.68265625 129.60348694 134.6640625 128.92532349 C134.62578009 127.51009144 134.58928721 126.09481002 134.55444336 124.67948914 C134.49886875 122.42281415 134.43847188 120.16631036 134.37695312 117.90979004 C134.26889718 113.91792717 134.1649978 109.92596904 134.0625 105.93395996 C133.89922843 99.57561644 133.73250681 93.21737616 133.56030273 86.85926819 C133.5019307 84.66628455 133.44710717 82.47323339 133.39257812 80.28015137 C133.3556229 78.89184159 133.31852039 77.50353573 133.28125 76.11523438 C133.25095703 74.93135132 133.22066406 73.74746826 133.18945312 72.52770996 C132.90290972 65.679655 132.42754372 58.84069954 132 52 C126.06 83.02 120.12 114.04 114 146 C96.18 146 78.36 146 60 146 C55.41679523 124.96462247 51.19309341 103.88980067 47.125 82.75 C45.10375 72.2725 43.0825 61.795 41 51 C40.01 82.35 39.02 113.7 38 146 C20.51 146 3.02 146 -15 146 C-14.33787188 136.73020628 -13.59409058 127.52572036 -12.60131836 118.29345703 C-12.46462234 117.00394135 -12.32792633 115.71442566 -12.18708801 114.38583374 C-11.81740327 110.89893984 -11.44479349 107.41236441 -11.07159877 103.92584467 C-10.68014862 100.26388942 -10.29147107 96.60163985 -9.90248108 92.93942261 C-9.16779256 86.02648551 -8.43066328 79.11381103 -7.69262463 72.20123088 C-6.6938007 62.84473294 -5.69881279 53.48782709 -4.70359325 44.13094521 C-3.13883405 29.420298 -1.56900662 14.71019623 0 0 Z " fill="#A954FF" transform="translate(173,184)"/>
<path d="M0 0 C-0.63846836 3.63824318 -1.61967015 6.93383375 -2.92578125 10.38671875 C-3.31056641 11.40830078 -3.69535156 12.42988281 -4.09179688 13.48242188 C-4.49462891 14.54009766 -4.89746094 15.59777344 -5.3125 16.6875 C-5.70373047 17.72583984 -6.09496094 18.76417969 -6.49804688 19.83398438 C-8.92478142 26.25295884 -11.42531772 32.63896818 -14 39 C-14.98097656 38.48050781 -15.96195312 37.96101563 -16.97265625 37.42578125 C-38.02237354 26.46666362 -60.13393113 20.82606633 -83.875 20.8125 C-84.99519531 20.80025391 -86.11539063 20.78800781 -87.26953125 20.77539062 C-99.62523593 20.6948509 -99.62523593 20.6948509 -111 25 C-111.81584568 28.05908413 -111.81584568 28.05908413 -112 31 C-101.81356786 40.0868736 -85.23061752 38.60269715 -72.3125 39 C-20.63671077 40.60509901 -20.63671077 40.60509901 -3.625 58.25 C3.03285645 66.78037858 3.94339451 76.51911712 3 87 C1.34299908 98.30584473 -2.64796138 109.369552 -12.03515625 116.55859375 C-41.79205379 137.02603099 -84.86272937 135.14894937 -119 129 C-129.395 126.525 -129.395 126.525 -140 124 C-140 108.16 -140 92.32 -140 76 C-135.875 77.423125 -131.75 78.84625 -127.5 80.3125 C-117.38714553 83.73239085 -107.59274756 86.60915858 -97 88 C-95.15728516 88.27070313 -95.15728516 88.27070313 -93.27734375 88.546875 C-80.8579422 90.06110901 -62.49968984 91.93102296 -51.69921875 84.39453125 C-51.13847656 83.93433594 -50.57773438 83.47414063 -50 83 C-49.94824448 80.12688428 -49.94824448 80.12688428 -51 77 C-61.99279247 68.39694502 -79.48688451 70.40587867 -92.72387695 69.97094727 C-102.84576667 69.62751486 -112.84871389 69.07992104 -122.87890625 67.62109375 C-124.08135231 67.4505825 -124.08135231 67.4505825 -125.30809021 67.27662659 C-126.07081741 67.15625534 -126.83354462 67.03588409 -127.61938477 66.91186523 C-128.60274559 66.75704933 -128.60274559 66.75704933 -129.60597229 66.59910583 C-133.16279581 65.70901015 -136.56694376 64.28739609 -140 63 C-140 39.57 -140 16.14 -140 -8 C-98.0967231 -27.33997395 -39.80551402 -24.78456533 0 0 Z " fill="#A954FF" transform="translate(140,200)"/>
<path d="M0 0 C0 44.88 0 89.76 0 136 C-30.48456688 151.24228344 -65.35137968 153.76057586 -98.00854492 143.18212891 C-111.16298773 138.6388538 -123.41257789 132.69765144 -135 125 C-134.41373816 118.51854969 -133.24526168 112.48120208 -131.625 106.1875 C-129.05714361 95.87239392 -127.39133408 85.53115472 -126 75 C-121.76263792 75.87192753 -118.90419031 78.07127444 -115.5 80.625 C-95.02826862 95.49979977 -71.32370499 105.30492246 -45.5625 102.375 C-39.08527883 101.26252811 -33.6420945 99.71644016 -29.703125 94.17578125 C-25.07522109 85.64098744 -24.70947939 77.02156255 -24.76953125 67.5234375 C-24.76998947 66.32175934 -24.77044769 65.12008118 -24.7709198 63.88198853 C-24.77393386 61.33863335 -24.78179476 58.79527988 -24.79418945 56.25195312 C-24.8122113 52.43612815 -24.81470033 48.62055023 -24.81445312 44.8046875 C-24.83623194 30.17718148 -25.18024358 15.60468235 -26 1 C-17.77199903 -1.74266699 -8.67307455 0 0 0 Z " fill="#A954FF" transform="translate(512,183)"/>
</svg>
